<svg fill="none" height="30" viewBox="0 0 37 30" width="37" xmlns="http://www.w3.org/2000/svg"><path d="m30.6547 29.4245.0008-.0064-13.1913.0452-3.2821.0141-1.5125.0017-5.75351.012-5.70503.001-.00127-.0001v-.0005l.00003-.0505.00347-4.6978-.00148-1.6313-.00057-.8488.00229-2.1254.00177-.273-.00131-.161.00029-.268-.00043-1.4208-.00711-2.9481h.02992v-.0037l.03009-.0002-.00178-4.2122-.00551-5.3487-.00008-4.807847.07572-.003601.06784.000141v-.001938l5.41145.013191.2643-.019817 5.57461-.009407.202-.005207 5.5616-.012295.2238-.01062 5.5025.02763.2567-.001412 5.518-.037265.2697-.003178 5.4983-.03196v.000229l.0045 4.755166v.00034l-.001 1.12657-1.8435.26693-.1154.727-.3393 2.41831-.0182.26274-.2934 2.0032-.3394 2.4841-.0532.3247-.3001 2.0872-.3368 2.3672-.038.3539-.2667 1.861-.3328 2.5625-.0578.3968-.2536 1.9011-.3674 2.5151-.0708.412z" style="fill-rule:evenodd;clip-rule:evenodd;fill:#0faad8;fill-opacity:1;stroke:#fff;stroke-width:.7;stroke-miterlimit:10;stroke-linecap:round;stroke-linejoin:round"/></svg>