<svg width="49" height="55" viewBox="0 0 49 55" fill="none" xmlns="http://www.w3.org/2000/svg">
<path fill-rule="evenodd" clip-rule="evenodd" d="M48.6295 1.24676L48.6219 3.6603L48.617 6.08102L48.5518 6.08082L47.1724 6.07648L47.1692 7.27048L46.4478 7.27166L46.4456 8.47398L44.1266 8.48101L44.1317 7.59701L42.7676 7.64355L41.9198 7.96592L41.917 8.87832L41.1926 9.26589L41.1823 11.3504L38.4012 11.4104V11.4111L38.3903 12.5204L36.8587 12.5423L36.8448 13.6473L35.4095 13.6654L35.3921 14.8158L33.9306 14.8416L33.9224 15.9811L35.3751 15.9385L35.3547 17.1721L36.0833 17.1476L36.0709 18.3601L36.0517 19.5986L35.3141 19.6192L35.2942 20.8166L35.4064 20.8144L36.629 20.7907L38.3487 20.7573H38.3491V20.7579L38.3392 25.6698H38.3389L35.0146 25.6771L33.9222 25.6796L33.9298 28.1602L34.6541 28.1527L34.6503 29.3171L32.5361 29.3246L32.5331 30.4958L29.6716 30.4872V30.4888L29.5744 32.8222L27.388 32.7732L27.3483 33.893L26.7007 33.8859L26.6916 35.0143V35.015L26.6856 36.3605L29.4818 36.3628L29.4776 39.9755L29.4807 41.2696L30.9335 41.2617L30.9342 42.4652L29.5731 42.4589V42.4735L29.561 44.6236L29.5594 44.9017L27.3996 44.9103L27.3155 44.507L27.4161 44.3123L27.2583 44.1535L27.1741 43.9836L26.8903 43.6593L26.5349 43.7097L26.4082 43.9651L25.9588 44.0551L25.4951 44.3368L24.8757 44.5294L24.382 44.5204L23.3662 44.5208L22.9823 44.9648L23.0408 45.0261L23.1501 45.0289L23.4662 44.7634L23.5214 45.0333L23.8747 44.9906L24.2081 44.988L24.3499 44.8147L24.4288 44.8778L24.8095 44.8434L25.435 44.646L25.4583 44.7445L25.5335 44.6915L25.5482 44.7819L25.3798 44.8905L25.5804 45.0455L25.4854 45.067L25.2823 44.9777L24.703 45.1373L24.5528 45.2571L24.2153 45.408L23.7855 45.4913L23.6574 45.5769L23.8506 45.545L24.0676 45.5682L23.9946 45.7065L23.9461 45.8845L24.1501 46.5741L24.2764 46.6039L24.3079 46.7008L24.5349 46.8856L24.7159 46.7956L24.8909 46.7977L24.852 46.6566L24.9624 46.5975L24.9743 46.8072L25.16 46.8147L25.2118 46.7344L25.0919 46.7418L25.18 46.6052L25.2422 46.6228L25.2604 46.4593L25.3609 46.3511L25.409 46.3624L25.3623 46.4241L25.488 46.5505L25.2745 46.9917L25.3212 47.1038L25.0658 47.4108L25.4635 47.7772L25.4249 47.7869L20.1015 47.9143L20.1099 49.7705L20.801 49.7982L20.848 52.2137L20.8828 54.1224L18.0368 54.1309L18.0362 52.1029L15.1512 49.5733L12.2669 49.5699L12.2588 46.0911L12.0747 46.0499L9.73808 45.3031L9.58427 45.3133H9.584L5.87307 45.3013L5.88055 45.2641L5.88635 45.2317L5.89152 45.1991L5.89595 45.1665L5.8997 45.1339L5.90282 45.1012L5.9052 45.0684L5.90689 45.0357L5.9079 45.0029L5.90829 44.9701L5.90794 44.9373L5.90689 44.9045L5.90517 44.8717L5.90276 44.839L5.89967 44.8063L5.89589 44.7736L5.89143 44.7411L5.88636 44.7085L5.88053 44.6761L5.87403 44.6437L5.86683 44.6115L5.85903 44.5793L5.85047 44.5473L5.8413 44.5154L5.83144 44.4837L5.82098 44.452L5.80982 44.4206L5.79799 44.3893L5.78547 44.3582L5.77234 44.3273L5.75859 44.2966L5.74416 44.2661L5.71815 44.2145L5.45324 43.7112L5.14543 43.1264L5.09036 43.1466L4.34272 41.7264L4.31768 41.7355L3.67551 40.5148L9.70961 40.4715H9.70988L9.72747 40.0104V40.0098L9.70428 38.2781L9.62649 36.8864L7.15017 36.8831L7.15134 35.6784L7.14907 33.2021L6.42698 33.2153L6.4258 32.0106L4.98381 32.0368L4.98354 31.111L3.87649 31.101L3.82275 26.278L3.7724 23.8668L3.72354 21.5118L0.576595 21.4829L0.55658 20.2557L1.32558 20.2709L1.30894 19.0848L1.2752 16.6856L3.66905 16.7065L3.76035 16.7082L3.75059 16.0989L4.33366 16.0965L4.32649 15.4934L5.79992 15.4867L5.79523 14.8828L7.27294 14.8755L7.27782 16.6897L7.29188 19.0981L9.54511 19.0899L9.56514 20.8393L9.55944 21.4651L9.57506 23.2672L10.8297 23.2714V20.8762L10.8105 18.4794L12.2555 18.4935L12.2366 16.117L12.2129 13.6876L15.195 13.7084L15.1949 13.6524L15.1948 13.6321L15.1859 11.383L15.8346 11.3794L21.0108 11.3508L21.0109 11.32L22.6853 11.2906L26.7472 11.2897H26.835L26.8312 12.9313L26.8348 12.4204L29.5963 12.4739L29.594 11.2506L29.8328 11.2515L31.017 11.2531L31.0031 8.88457L29.5704 8.85601L29.5529 7.05465L32.4322 7.081L33.8742 7.07612L33.9035 8.93893L36.8398 8.99053L36.8284 7.74924L38.3555 7.79711L38.3397 6.53199L39.7708 6.4986L39.7665 5.9222L41.2014 5.88076L41.1759 2.83695L42.6207 2.80785L42.6284 4.02212L44.1424 3.98504L44.1421 3.65018L46.452 3.65525L46.4539 1.25736L46.6202 1.25663L46.682 1.25593L46.7543 1.2553L47.3916 1.25205V1.25249L48.5913 1.24697L48.6295 1.24676Z" fill="#0faad8" fill-opacity="1" stroke="white" stroke-width="0.7" stroke-miterlimit="10" stroke-linecap="round" stroke-linejoin="round"/>
</svg>
