<svg width="64" height="26" viewBox="0 0 64 26" fill="none" xmlns="http://www.w3.org/2000/svg">
<path fill-rule="evenodd" clip-rule="evenodd" d="M5.42074 24.8009L5.41764 24.7979L4.24005 23.6568L4.23774 23.4402L4.25005 19.9768L4.25026 19.9275L1.36071 19.9248L1.36046 19.8133L0.714401 19.4582L0.5256 19.3544L0.51535 17.5701L0.603666 17.5697L0.603644 17.3445L1.35528 17.3418L1.3554 17.3835L1.64602 17.3819L1.809 17.3809L1.80902 17.3375L2.05263 17.337L2.29836 17.3365L2.29843 17.5621L2.32581 17.562L2.78138 17.5599L3.5252 17.5566L3.16666 17.2418L3.35232 17.0874L3.5491 16.9237L4.24655 16.3444L4.2465 16.3536L5.47992 15.297L5.47676 15.1564L6.16059 15.1572L6.4215 14.9254L6.68632 14.7659L6.90926 14.7476L6.90926 14.747L6.90972 14.7469L6.90913 14.5921L7.25028 14.4095L7.93309 15.1209L7.97481 15.1208L8.6902 14.3869L9.01309 13.6124L9.81473 13.4865L9.8178 12.7611L11.6065 12.7358L11.6063 12.6583L11.6058 12.4575L11.7526 12.4554L11.7632 12.4553L11.7631 12.4548L11.9217 12.4529L11.9216 12.4009L11.7522 12.4038L11.7521 12.3531L11.7503 12.1935L11.7519 12.1257L11.7383 12.1258L11.7383 12.1249L11.7644 12.1248L11.7604 11.8211L12.6418 11.8142L12.6427 11.9947L14.0658 11.9815L14.0657 12.0996L14.0649 12.7014L14.1148 12.7007L14.1148 12.7021L14.4162 12.6999L14.4199 12.9194L14.363 12.9646L14.3043 12.9647L14.3013 13.0837L14.3343 13.1828L14.3707 13.4372L14.4233 13.4369L14.5512 13.436L14.549 13.2887L14.4991 13.2532L14.5405 13.1812L14.6607 12.9718L14.7782 12.9703L14.777 12.7643L14.7766 12.6974L15.2659 12.694L15.2683 12.6846L15.2748 12.6845L15.4907 12.6815L15.4915 12.5119L15.5497 12.5261L15.5659 11.4827L15.9975 11.4831L16.2185 11.4832L16.769 11.4835L16.9422 11.4835L16.9423 11.4598L16.9443 11.1548L17.0444 11.0759L17.1217 10.9941L17.399 10.7465L17.5029 10.5967L17.8257 10.4814L18.0295 10.4471L18.0302 10.2797L18.453 10.278L18.4527 10.2579L18.45 10.0287L18.7733 9.99903L19.1256 9.96666L19.1241 9.67284L19.8306 9.67211L19.8292 9.06981L20.0053 9.06971L20.1834 9.07013L20.2975 9.06996L20.4335 9.06975L20.5376 9.0696L20.5384 9.36895L20.892 9.36956L21.2546 9.36937L21.2538 9.46387L21.6684 9.4421L21.6876 9.40865L21.7351 9.326L21.9081 9.39766L22.134 9.48955L22.1359 9.48721L22.1373 9.48561L22.1388 9.48401L22.1402 9.48247L22.1417 9.48087L22.1432 9.47939L22.1447 9.47784L22.1463 9.47636L22.1479 9.47493L22.1496 9.4735L22.1512 9.47207L22.1529 9.4707L22.1547 9.46933L22.1565 9.46796L22.1582 9.46664L22.1601 9.46539L22.1619 9.46413L22.1637 9.46287L22.1656 9.46167L22.1675 9.46053L22.1695 9.45938L22.1715 9.45824L22.1734 9.45716L22.1754 9.45607L22.1774 9.45504L22.1795 9.45407L22.1816 9.45309L22.1837 9.45212L22.1858 9.45126L22.1879 9.45035L22.1901 9.44949L22.1922 9.44869L22.1944 9.44788L22.1966 9.44714L22.1988 9.44645L22.201 9.44577L22.2032 9.44508L22.2056 9.44445L22.2078 9.44387L22.2101 9.44336L22.2123 9.44278L22.2147 9.44233L22.217 9.44186L22.2193 9.44146L22.2216 9.44106L22.224 9.44072L22.2263 9.44037L22.2287 9.44008L22.231 9.43985L22.2333 9.43962L22.6516 9.40462L22.6598 9.40392L22.7732 9.39446L22.8216 9.81317L22.9965 9.90405L23.1976 9.84343L23.1842 9.86637L23.1706 9.88972L23.1698 9.89097L23.1688 9.89217L23.1678 9.89326L23.1666 9.89429L23.1653 9.8952L23.164 9.89606L23.1625 9.8968L23.161 9.89743L23.1595 9.89795L23.1578 9.89835L23.1542 9.89978L23.1507 9.90149L23.1473 9.90344L23.1442 9.90561L23.1414 9.90801L23.1388 9.91064L23.1364 9.91338L23.1344 9.91634L23.1326 9.91937L23.1312 9.92257L23.1301 9.92588L23.1294 9.92918L23.129 9.93261L23.129 9.93597L23.1293 9.93939L23.1299 9.94276L23.1309 9.94601L23.1322 9.94926L23.1338 9.95233L23.1358 9.9553L23.1381 9.95815L23.1406 9.96082L23.1434 9.96327L23.1464 9.96549L23.1497 9.96754L23.1531 9.9693L23.1568 9.97083L23.1605 9.97208L23.1644 9.97305L23.1683 9.97378L23.1724 9.97418L23.1764 9.97429L23.1805 9.97411L23.1845 9.97365L23.1884 9.9729L23.1923 9.97187L23.196 9.97055L23.1996 9.96895L23.203 9.96712L23.2062 9.96506L23.2092 9.96278L23.212 9.96026L23.2144 9.95758L23.2167 9.95472L23.2186 9.9517L23.2201 9.94856L23.2213 9.94536L23.2223 9.94205L23.2228 9.93869L23.2231 9.93526L23.2229 9.93185L23.2225 9.92848L23.2216 9.92517L23.2208 9.92398L23.2201 9.92278L23.2195 9.92153L23.219 9.92022L23.2186 9.91885L23.2184 9.91748L23.2184 9.91611L23.2185 9.91474L23.2187 9.91343L23.2191 9.91206L23.2196 9.9108L23.2203 9.90949L23.2335 9.88695L23.272 9.82096L23.7894 9.66482L23.789 9.53707L24.0594 9.45439L24.0622 9.17026L23.932 9.16942L23.8098 9.06528L23.8061 9.06215L23.5005 8.80161L23.501 8.7447L23.5029 8.53704L23.6535 8.49485L23.7067 8.47995L23.9171 8.42109L24.0281 8.18031L24.0616 8.18027L24.0718 8.18025L24.075 7.85529L26.2684 7.85259L26.2683 7.89764L26.979 7.8968L26.9795 7.85175L27.2316 7.8493L27.2292 7.46571L27.228 7.27158L27.2992 7.2708L27.3707 7.27008L27.4424 7.2693L27.5142 7.26858L27.5844 7.2678L27.6563 7.26708L27.7281 7.2663L27.8005 7.26558L27.8714 7.2648L27.9439 7.26407L28.0149 7.26329L28.086 7.26257L28.157 7.26186L28.2293 7.26107L28.3015 7.2603L28.4062 7.25925L28.4058 7.23592L28.5105 7.23499L28.5131 7.53685L28.5158 7.83659L29.4441 7.82753L29.4451 7.75167L29.5215 7.66722L29.5761 7.66653L29.6045 7.699L29.6255 7.72293L29.6827 7.66428L29.8404 7.5028L29.8396 7.22095L30.2584 7.21832L30.3748 7.21674L30.3787 7.23425L30.382 7.24856L30.3915 7.2843L30.3916 7.28487L30.4025 7.31976L30.415 7.35488L30.4217 7.37232L30.4289 7.38959L30.4442 7.4239L30.461 7.45776L30.4699 7.47446L30.6068 7.72539L30.6133 7.73713L30.6193 7.74762L30.6243 7.75583L30.6334 7.76791L30.6725 7.81548L31.722 7.80528L31.8323 8.10934L31.9505 8.23067L32.7066 8.22001L32.7081 7.7957L34.1375 7.7976L34.1356 7.52032L34.3857 7.45729L34.5054 7.45778L34.8498 7.56585L35.0127 7.62503L35.2737 7.62622L35.5631 7.67226L35.5631 7.64454L35.241 7.42465L35.0886 7.22493L35.0874 7.04244L35.1318 7.04261L35.1752 6.9516L35.1746 6.6616L35.1745 6.60469L35.5626 6.60681L35.5627 6.81212L36.1336 6.8153L36.2151 6.74734L36.3293 6.74796L36.3296 6.99433L36.5035 6.99527L36.5034 6.84927L36.6221 6.74957L36.9909 6.75167L36.991 6.63984L37.0191 6.63974L37.0189 6.61693L37.3469 6.61789L37.7041 6.6179L38.0618 6.62002L38.0625 6.25337L38.0627 6.01778L38.4151 6.01997L38.415 6.05778L38.5814 6.19681L38.7208 6.1957L38.7264 6.22392L39.0461 6.22558L39.0467 6.17032L39.2081 6.16924L39.2082 6.06869L39.2828 6.06804L39.2795 6.61868L38.9086 6.61889L38.9105 6.51818L38.4132 6.5146L38.4081 7.82226L39.8444 7.82093L41.269 7.81977L41.2686 5.41593L41.9793 5.40308L41.9792 5.37194L41.9796 5.3055L42.0723 5.30381L42.2616 5.14075L42.3372 5.13982L42.3766 5.10191L42.4938 5.10009L42.4944 5.13613L42.7164 5.13483L42.7164 5.04125L42.8899 5.13963L42.7633 5.23123L42.9036 5.38644L43.0671 5.3835L43.2338 5.38049L43.1217 5.11494L43.0632 5.11557L43.0628 4.81456L43.3998 4.81236L43.3989 4.76611L43.7596 4.7632L43.7541 4.50492L43.9545 4.50268L43.9745 4.43821L44.0363 4.32033L44.0591 4.29111L44.8056 4.39023L44.9145 4.40473L44.956 4.54676L45.0541 4.58733L45.111 4.67522L45.2729 4.67747L45.274 4.67918L45.2752 4.68089L45.2763 4.6826L45.2775 4.68425L45.2788 4.68591L45.28 4.68756L45.2814 4.68921L45.2826 4.69081L45.284 4.6924L45.2854 4.69394L45.2869 4.69548L45.2884 4.69702L45.2899 4.6985L45.2914 4.69998L45.2929 4.7014L45.2946 4.70283L45.2962 4.70425L45.2978 4.70562L45.2995 4.70699L45.3012 4.7083L45.3029 4.70961L45.3047 4.71092L45.3065 4.71217L45.3083 4.71337L45.3101 4.71462L45.312 4.71576L45.3139 4.7169L45.3158 4.71804L45.3178 4.71912L45.3197 4.7202L45.3217 4.72123L45.3237 4.72225L45.3257 4.72322L45.3278 4.72419L45.3298 4.72509L45.3319 4.72595L45.3339 4.7268L45.336 4.72766L45.3382 4.72845L45.3403 4.72919L45.3425 4.72993L45.3447 4.73061L45.3469 4.7313L45.3491 4.73192L45.3513 4.73255L45.3535 4.73312L45.3558 4.73363L45.358 4.73414L45.3603 4.73459L45.3626 4.73505L45.3649 4.73544L45.3671 4.73584L45.3694 4.73618L45.3717 4.73646L45.3741 4.73675L45.3764 4.73697L45.3787 4.73714L45.381 4.73731L45.3834 4.73748L45.3857 4.73759L45.388 4.73765L45.3903 4.73764H45.3927L45.395 4.73764L45.3973 4.73758L45.3997 4.73746L45.402 4.73729L45.4043 4.73712L45.4082 4.73677L45.4064 4.81326L45.5467 4.80178L45.6446 4.79382L45.8604 4.76163L45.9108 4.78822L45.9735 4.86835L46.1184 4.87798L46.197 4.87072L46.2709 4.88897L46.3504 4.83135L46.3633 4.76764L46.5056 4.67997L46.6315 4.65534L46.733 4.68155L46.8242 4.64497L46.7666 4.53974L46.7762 4.48806L46.8514 4.39595L46.8987 4.43811L46.9831 4.39937L47.0577 4.36001L47.1225 4.25143L47.1284 4.24162L46.9839 4.17125L46.9845 3.97552L48.4072 3.96412L49.8056 3.95124L49.8281 2.92536L52.1891 2.92545L52.1915 2.78857L52.1925 2.74443L52.4122 2.80986L52.644 2.87887L52.6428 2.92546L52.733 2.92551L52.7996 2.92552L52.7335 2.79269L52.7275 2.77552L52.6478 2.55077L52.6483 2.4979L52.7366 2.49829L52.8773 2.49854L52.8753 2.55996L53.0949 2.561L53.3265 2.1505L53.332 2.15033L53.3374 2.15004L53.3428 2.14969L53.3503 2.14906L53.7703 2.07771L53.7764 2.07645L53.7826 2.07513L53.7887 2.07376L53.7947 2.07221L53.8008 2.07067L53.8067 2.06895L53.8127 2.06718L53.8186 2.06535L53.8245 2.06341L53.8303 2.06141L53.8361 2.0593L53.8419 2.05707L53.8476 2.05484L53.8532 2.05244L53.8588 2.04998L53.8644 2.04747L53.8699 2.0449L53.8753 2.04222L53.8894 2.03479L54.1901 2.03521L54.1891 2.11814L54.1864 2.362L54.2123 2.36198L54.5317 2.36194L54.5504 2.36193L54.5864 2.3619L54.7996 2.36187L54.8178 2.36186L54.8857 2.20647L55.0208 2.14153L55.1212 2.09322L55.1515 2.07866L55.2044 2.07874L55.3953 2.07901L55.6382 2.07936L55.6427 1.71431L55.8216 1.71271L55.9647 1.71142L56.1068 1.71019L56.2486 1.70896L56.3979 1.70761L56.5466 1.70632L56.6971 1.70497L56.8212 1.70387L56.853 1.70356L56.8856 1.70332L56.9486 1.70276L57.1012 1.70142L57.1747 1.70074L57.2075 1.70061L57.5643 1.69897L58.2659 1.69582L58.2751 1.24128L58.7596 1.10236L58.7543 1.45446L58.6277 1.5751L58.6257 1.6919L59.3184 1.68444L59.6938 1.68332L59.8439 1.68283L60.1699 1.68009L60.6663 1.6759L60.9007 1.67395L60.9087 1.6797L60.96 1.71686L60.9572 1.78798L60.9509 1.8469L60.9361 1.90245L60.9187 1.95977L60.9088 1.9729L60.8716 2.02219L60.8307 2.05449L60.7861 2.07841L60.7416 2.09771L60.686 2.12215L60.6372 2.1398L60.5861 2.15208L60.5046 2.16656L60.4701 2.1753L60.4294 2.19243L60.4039 2.20602L60.3747 2.22103L60.3068 2.22466L60.2368 2.24523L60.1499 2.24716L60.0871 2.244L60.029 2.23964L59.9879 2.24297L59.9471 2.24636L59.917 2.26046L59.8944 2.28739L59.8747 2.31723L59.8525 2.36195L59.8446 2.41117L59.8448 2.43438L59.8415 2.63491L59.9216 2.63777L59.9979 2.63773L60.0474 2.63422L60.095 2.62068L60.1432 2.63828L60.1984 2.64367L60.2264 2.6424L60.2627 2.63348L60.3131 2.62165L60.3688 2.59898L60.4129 2.57323L60.4514 2.55006L60.4921 2.52996L60.5284 2.51574L60.5367 2.51568L60.5605 2.51538L60.5906 2.51759L60.6118 2.51884L60.6543 2.51704L60.6968 2.50613L60.7323 2.49596L60.7794 2.48892L60.8195 2.49529L60.8661 2.52207L60.8925 2.54458L60.9067 2.57742L60.9056 2.60178L60.8951 2.62214L60.8716 2.64132L60.84 2.65439L60.8282 2.66535L60.8114 2.6795L60.7941 2.69588L60.7806 2.71921L60.7713 2.74066L60.7819 2.76033L60.7977 2.77908L60.8235 2.79047L60.8496 2.78288L60.8936 2.7877L60.9256 2.80588L60.9709 2.80027L61 2.73906L61.0414 2.72603L61.0732 2.72351L61.0961 2.73621L61.1087 2.76033L61.1226 2.78696L61.1296 2.80053L61.145 2.86821L61.1469 2.87642L61.6667 2.87308L61.7864 2.87234L61.7886 2.83863L61.8003 2.80441L61.8055 2.78519L61.8192 2.77349L61.8389 2.76624L61.874 2.74905L61.9157 2.71795L61.9532 2.68177L61.9861 2.66659L62.0236 2.65762L62.0685 2.65622L62.1246 2.66355L62.1655 2.66519L62.1836 2.66358L62.2027 2.66078L62.255 2.65311L62.2648 2.65002L62.3147 2.63454L62.3577 2.62078L62.3903 2.61135L62.4322 2.60877L62.4738 2.60647L62.5253 2.61186L62.5417 2.61556L62.5523 2.61801L62.5654 2.62096L62.6141 2.63029L62.6472 2.64191L62.677 2.65479L62.6986 2.66989L62.7138 2.69275L62.7169 2.71625L62.715 2.73758L62.7186 2.77453L62.7202 2.80037L62.7217 2.81691L62.7229 2.83054L62.7233 2.83504L62.7309 2.86098L62.732 2.89155L62.7283 2.91613L62.7237 2.93889L62.7181 2.97306L62.7087 2.99222L62.6916 3.02143L62.6839 3.03661L62.6565 3.07848L62.6258 3.12321L62.5972 3.16622L62.5769 3.20102L62.5646 3.22361L62.5421 3.25037L62.5374 3.2559L62.5342 3.53632L62.5323 3.70382L62.5314 3.77796L62.5313 3.79296L62.5306 3.85284L62.5295 3.94461L62.5291 3.98441L62.5287 4.02211L62.5277 4.10743L62.5267 4.19184L62.5264 4.22303L62.5257 4.27841L62.5246 4.37188L62.5245 4.39241L62.523 4.52164L62.5215 4.64706L62.5205 4.73397L62.5193 4.84724L62.5187 4.8956L62.518 4.95462L62.5164 5.09897L62.5161 5.12144L62.5156 5.16861L62.5141 5.29778L61.287 5.31042L61.29 5.55941L61.1957 5.56055L61.0672 5.56215L61.0677 5.61753L60.9549 5.61839L60.8866 5.61893L60.8424 5.61924L60.7993 5.61961L60.7557 5.61992L60.7122 5.62022L60.6686 5.62059L60.6243 5.6209L60.5701 5.62132L60.512 5.62181L60.4508 5.62224L60.4391 5.62236L60.4298 5.63029L60.4057 5.65078L60.3607 5.68896L60.3217 5.72211L60.2905 5.74859L60.2598 5.77467L60.2297 5.80024L60.1984 5.82683L60.1067 5.90473L60.0358 5.96664L60.002 5.99615L60.0043 6.53235L59.9219 6.56821L59.8266 6.60961L59.7358 6.64912L59.5559 6.72741L59.4828 6.75927L59.4043 6.79348L59.3133 6.83311L59.2893 6.8435L59.1259 6.9848L59.0633 7.03902L58.9957 7.09756L58.9345 7.15047L58.8849 7.1935L58.8262 7.24417L58.7166 7.33914L58.6271 7.41663L58.5781 7.4591L58.5098 7.51828L58.4978 7.5286L58.3924 7.61992L58.2229 7.76801L57.847 7.77182L57.7286 7.77303L57.6137 7.77419L57.5158 7.77521L57.4423 7.83879L57.4157 7.86179L57.3602 7.90979L57.162 8.08065L56.9386 8.08233L56.8875 8.08294L56.8659 8.08323L56.8095 8.08389L56.2021 8.08924L56.1973 8.57389L56.197 8.62516L56.1966 8.70015L56.2844 8.69839L56.3121 8.6982L56.4585 8.69725L56.506 8.69693L56.5057 8.76583L56.5055 8.81636L56.5048 8.98072L56.5047 8.99583L56.3369 8.99924L56.2717 8.99963L56.2418 8.99976L55.5752 9.00373L55.5982 10.2517L55.5952 10.577L55.5763 12.6405L55.284 12.6407L55.1797 12.6407L55.0711 12.6408L54.9739 12.6409L54.8655 12.6409L54.7676 12.641L54.6586 12.6411L54.5615 12.6411L54.4526 12.6412L54.3555 12.6413L54.2467 12.6413L54.1491 12.6414L54.0409 12.6415L53.9432 12.6416L53.8339 12.6416L53.7257 12.6417L53.6172 12.6418L53.5086 12.6419L53.3996 12.6419L53.2906 12.642L53.1648 12.6421L53.0345 12.6422L52.9039 12.6423L52.7735 12.6424L52.6441 12.6425H52.6417L50.4588 12.6474L50.3003 12.7325L50.1589 12.8397L50.0345 12.9434L49.8676 12.9412L49.8245 12.9409L49.8023 15.0483L49.8023 15.0538L49.7695 18.6688L49.4399 18.6692L49.4276 18.6693L49.2211 18.6697L48.3813 18.6727L46.9294 18.678L45.4681 18.6776L45.1033 18.6781L44.9808 18.6782L44.4326 18.6788L44.0218 18.6794L44.0207 19.8688L44.0207 19.874L38.3017 19.8578L38.2938 19.8578L32.5724 19.868L32.5616 19.868L26.86 19.8662L26.8477 19.8661L26.8686 23.3753L26.8766 24.7132L26.8719 24.7134L26.5998 24.7151L21.2985 24.7485L21.2877 24.7486L15.5269 24.7831L15.5227 24.7831L11.2795 24.803L9.77082 24.8102L9.73285 24.8101L5.42074 24.8009Z" fill="#895A44" fill-opacity="0.50196" stroke="white" stroke-width="0.7" stroke-miterlimit="10" stroke-linecap="round" stroke-linejoin="round"/>
</svg>
