<svg fill="none" height="55" viewBox="0 0 50 55" width="50" xmlns="http://www.w3.org/2000/svg"><path d="m49.0729.999992-.0076 2.413548-.0049 2.42071-.0652-.0002-1.3794-.00433-.0032 1.194-.7214.00117-.0022 1.20232-2.3189.00704.0051-.88401-1.3642.04654-.8478.32237-.0028.9124-.7244.38758-.0103 2.08447-2.7811.0601-.0109 1.1099-1.5316.022-.0139 1.1049-1.4353.0181-.0174 1.1505-1.4615.0258-.0082 1.1394 1.4527-.0426-.0204 1.2336.7286-.0245-.0124 1.2125-.0192 1.2385-.7376.0206-.0198 1.1975.1121-.0023 1.2226-.0237 1.7197-.0334-.0095 4.9126-3.3245.0073-1.0925.0024.0076 2.4806.7243-.0074-.0038 1.1643-2.1142.0075-.003 1.1712-2.8615-.0086v.0017l-.0972 2.3333-2.1864-.0489-.0397 1.1197-.6476-.0071-.0091 1.1284-.006 1.3462 2.7962.0023-.0042 3.6128.0031 1.294 1.4529-.0079.0006 1.2035-1.361-.0062-.0001.0146-.0121 2.1501-.0015.278-2.1598.0086-.0842-.4033.1006-.1947-.1578-.1587-.0842-.17-.2838-.3242-.3554.0503-.1267.2555-.4494.0899-.4636.2817-.6195.1926-.4937-.0089-1.0158.0003-.3839.444.0585.0613.1093.0028.3161-.2654.0552.2698.3534-.0427.3333-.0025.1418-.1734.0789.0631.3807-.0344.6255-.1973.0234.0984.0752-.053.0146.0904-.1684.1086.2006.155-.095.0216-.2031-.0894-.5793.1596-.1502.1198-.3375.1509-.4298.0834-.128.0855.1931-.0318.217.0231-.073.1383-.0485.178.204.6896.1263.0298.0315.0969.227.1848.181-.09.175.0021-.0389-.141.1105-.0592.0118.2097.1857.0076.0519-.0803-.12.0073.0881-.1366.0622.0176.0182-.1635.1006-.1082.0481.0113-.0468.0617.1257.1264-.2135.4413.0468.112-.2554.307.3976.3665-.0386.0096-5.3234.1274.0085 1.8562.691.0277.0471 2.4155.0347 1.9087-2.846.0085-.0006-2.028-2.885-2.5296-2.8843-.0033-.0081-3.4789-.1841-.0412-2.3366-.7468-.1538.0102-3.71121-.0119.00748-.0373.0058-.0324.00518-.0325.00442-.0327.00375-.0326.00312-.0327.00238-.0327.00169-.0328.00101-.0328.00039-.0328-.00035-.0328-.00105-.0328-.00172-.0328-.00241-.0327-.00309-.0327-.00378-.0327-.00446-.0325-.00507-.0326-.00582-.0324-.00651-.0324-.0072-.0322-.0078-.0321-.00856-.0321-.00917-.0319-.00986-.0317-.01046-.0316-.01116-.0315-.01183-.0313-.01252-.0311-.01313-.0309-.01375-.0307-.01443-.0305-.02601-.0515-.26491-.5034-.30781-.5848-.05507.0202-.74764-1.4202-.02504.0092-.64217-1.2207 6.03407-.0433.0179-.4611-.0232-1.7324-.0778-1.3916-2.47631-.0033.00117-1.2048-.00227-2.4763-.72209.0132-.00118-1.2047-1.44199.0262-.00027-.9258-1.10705-.0099-.05374-4.823-.05035-2.4112-.04885-2.3551-3.14695-.0288-.02002-1.2272.769.0152-.01663-1.1862-.03375-2.3992 2.39385.021.0913.0016-.00975-.6093.58306-.0024-.00717-.6031 1.47343-.0066-.00469-.604 1.47771-.0073.00488 1.8143.01407 2.4083 2.25322-.0081.02007 1.7493-.0057.6258.0156 1.8021 1.2546.0043v-2.3952l-.0192-2.3968 1.445.014-.0189-2.3765-.0236-2.4294 2.9821.0208-.0002-.0559-.0001-.0203-.0089-2.2491.6487-.0036 5.1762-.0286.0001-.0308 1.6744-.0294 4.0619-.0009.0878-.0001-.0037 1.6417.0035-.5109 2.7615.0535-.0023-1.2233.2388.0008 1.1842.0017-.0139-2.36859-1.4327-.02856-.0175-1.80137 2.8793.02636 1.442-.00489.0293 1.86281 2.9364.05161-.0115-1.24129 1.5271.04787-.0158-1.26513 1.4312-.03338-.0044-.5764 1.435-.04144-.0256-3.04381 1.4448-.0291.0077 1.21426 1.514-.03708-.0003-.33485 2.3099.00507.002-2.39789.1662-.00074.0618-.0007.0723-.00062.6373-.00325 1.1997-.00508z" style="fill-rule:evenodd;clip-rule:evenodd;fill:#cd6bb7;stroke:#fff;stroke-width:.7;stroke-miterlimit:10;stroke-linecap:round;stroke-linejoin:round"/></svg>