<svg fill="none" height="26" viewBox="0 0 64 26" width="64" xmlns="http://www.w3.org/2000/svg"><path d="m5.42074 24.8009-.0031-.003-1.17759-1.1411-.00231-.2166.01231-3.4634.00021-.0493-2.88955-.0027-.00025-.1115-.646059-.3551-.188801-.1038-.01025-1.7843.088316-.0004-.000022-.2252.751636-.0027.00012.0417.29062-.0016.16298-.001.00002-.0434.24361-.0005.24573-.0005.00007.2256.02738-.0001.45557-.0021.74382-.0033-.35854-.3148.18566-.1544.19678-.1637.69745-.5793-.00005.0092 1.23342-1.0566-.00316-.1406.68383.0008.26091-.2318.26482-.1595.22294-.0183v-.0006l.00046-.0001-.00059-.1548.34115-.1826.68281.7114.04172-.0001.71539-.7339.32289-.7745.80164-.1259.00307-.7254 1.7887-.0253-.0002-.0775-.0005-.2008.1468-.0021.0106-.0001-.0001-.0005.1586-.0019-.0001-.052-.1694.0029-.0001-.0507-.0018-.1596.0016-.0678-.0136.0001v-.0009l.0261-.0001-.004-.3037.8814-.0069.0009.1805 1.4231-.0132-.0001.1181-.0008.6018.0499-.0007v.0014l.3014-.0022.0037.2195-.0569.0452-.0587.0001-.003.119.033.0991.0364.2544.0526-.0003.1279-.0009-.0022-.1473-.0499-.0355.0414-.072.1202-.2094.1175-.0015-.0012-.206-.0004-.0669.4893-.0034.0024-.0094.0065-.0001.2159-.003.0008-.1696.0582.0142.0162-1.0434.4316.0004.221.0001.5505.0003h.1732l.0001-.0237.002-.305.1001-.0789.0773-.0818.2773-.2476.1039-.1498.3228-.1153.2038-.0343.0007-.1674.4228-.0017-.0003-.0201-.0027-.2292.3233-.02967.3523-.03237-.0015-.29382.7065-.00073-.0014-.6023.1761-.0001.1781.00042.1141-.00017.136-.00021.1041-.00015.0008.29935.3536.00061.3626-.00019-.0008.0945.4146-.02177.0192-.03345.0475-.08265.173.07166.2259.09189.0019-.00234.0014-.0016.0015-.0016.0014-.00154.0015-.0016.0015-.00148.0015-.00155.0016-.00148.0016-.00143.0017-.00143.0016-.00143.0017-.00137.0018-.00137.0018-.00137.0017-.00132.0019-.00125.0018-.00126.0018-.00126.0019-.0012.0019-.00114.002-.00115.002-.00114.0019-.00108.002-.00109.002-.00103.0021-.00097.0021-.00098.0021-.00097.0021-.00086.0021-.00091.0022-.00086.0021-.0008.0022-.00081.0022-.00074.0022-.00069.0022-.00068.0022-.00069.0024-.00063.0022-.00058.0023-.00051.0022-.00058.0024-.00045.0023-.00047.0023-.0004.0023-.0004.0024-.00034.0023-.00035.0024-.00029.0023-.00023.0023-.00023.4183-.035.0082-.0007.1134-.00946.0484.41871.1749.09088.2011-.06062-.0134.02294-.0136.02335-.0008.00125-.001.0012-.001.00109-.0012.00103-.0013.00091-.0013.00086-.0015.00074-.0015.00063-.0015.00052-.0017.0004-.0036.00143-.0035.00171-.0034.00195-.0031.00217-.0028.0024-.0026.00263-.0024.00274-.002.00296-.0018.00303-.0014.0032-.0011.00331-.0007.0033-.0004.00343v.00336l.0003.00342.0006.00337.001.00325.0013.00325.0016.00307.002.00297.0023.00285.0025.00267.0028.00245.003.00222.0033.00205.0034.00176.0037.00153.0037.00125.0039.00097.0039.00073.0041.0004.004.00011.0041-.00018.004-.00046.0039-.00075.0039-.00103.0037-.00132.0036-.0016.0034-.00183.0032-.00206.003-.00228.0028-.00252.0024-.00268.0023-.00286.0019-.00302.0015-.00314.0012-.0032.001-.00331.0005-.00336.0003-.00343-.0002-.00341-.0004-.00337-.0009-.00331-.0008-.00119-.0007-.0012-.0006-.00125-.0005-.00131-.0004-.00137-.0002-.00137v-.00137l.0001-.00137.0002-.00131.0004-.00137.0005-.00126.0007-.00131.0132-.02254.0385-.06599.5174-.15614-.0004-.12775.2704-.08268.0028-.28413-.1302-.00084-.1222-.10414-.0037-.00313-.3056-.26054.0005-.05691.0019-.20766.1506-.04219.0532-.0149.2104-.05886.111-.24078.0335-.00004.0102-.00002.0032-.32496 2.1934-.0027-.0001.04505.7107-.00084.0005-.04505.2521-.00245-.0024-.38359-.0012-.19413.0712-.00078.0715-.00072.0717-.00078.0718-.00072.0702-.00078.0719-.00072.0718-.00078.0724-.00072.0709-.00078.0725-.00073.071-.00078.0711-.00072.071-.00071.0723-.00079.0722-.00077.1047-.00105-.0004-.02333.1047-.00093.0026.30186.0027.29974.9283-.00906.001-.07586.0764-.08445.0546-.00069.0284.03247.021.02393.0572-.05865.1577-.16148-.0008-.28185.4188-.00263.1164-.00158.0039.01751.0033.01431.0095.03574.0001.00057.0109.03489.0125.03512.0067.01744.0072.01727.0153.03431.0168.03386.0089.0167.1369.25093.0065.01174.006.01049.005.00821.0091.01208.0391.04757 1.0495-.0102.1103.30406.1182.12133.7561-.01066.0015-.42431 1.4294.0019-.0019-.27728.2501-.06303.1197.00049.3444.10807.1629.05918.261.00119.2894.04604v-.02772l-.3221-.21989-.1524-.19972-.0012-.18249.0444.00017.0434-.09101-.0006-.29-.0001-.05691.3881.00212.0001.20531.5709.00318.0815-.06796.1142.00062.0003.24637.1739.00094-.0001-.146.1187-.0997.3688.0021.0001-.11183.0281-.0001-.0002-.02281.328.00096.3572.00001.3577.00212.0007-.36665.0002-.23559.3524.00219-.0001.03781.1664.13903.1394-.00111.0056.02822.3197.00166.0006-.05526.1614-.00108.0001-.10055.0746-.00065-.0033.55064-.3709.00021.0019-.10071-.4973-.00358-.0051 1.30766 1.4363-.00133 1.4246-.00116-.0004-2.40384.7107-.01285-.0001-.03114.0004-.06644.0927-.00169.1893-.16306.0756-.00093.0394-.03791.1172-.00182.0006.03604.222-.0013v-.09358l.1735.09838-.1266.0916.1403.15521.1635-.00294.1667-.00301-.1121-.26555-.0585.00063-.0004-.30101.337-.0022-.0009-.04625.3607-.00291-.0055-.25828.2004-.00224.02-.06447.0618-.11788.0228-.02922.7465.09912.1089.0145.0415.14203.0981.04057.0569.08789.1619.00225.0011.00171.0012.00171.0011.00171.0012.00165.0013.00166.0012.00165.0014.00165.0012.0016.0014.00159.0014.00154.0015.00154.0015.00154.0015.00148.0015.00148.0015.00142.0017.00143.0016.00142.0016.00137.0017.00137.0017.00131.0017.00131.0018.00131.0018.00125.0018.0012.0018.00125.0019.00114.0019.00114.0019.00114.002.00108.0019.00108.002.00103.002.00102.002.00097.0021.00097.002.0009.0021.00086.002.00085.0021.00086.0022.00079.0021.00074.0022.00074.0022.00068.0022.00069.0022.00062.0022.00063.0022.00057.0023.00051.0022.00051.0023.00045.0023.00046.0023.00039.0022.0004.0023.00034.0023.00028.0024.00029.0023.00022.0023.00017.0023.00017.0024.00017.0023.00011.0023.00006.0023-.00001h.0024.0023l.0023-.00006.0024-.00012.0023-.00017.0023-.00017.0039-.00035-.0018.07649.1403-.01148.0979-.00796.2158-.03219.0504.02659.0627.08013.1449.00963.0786-.00726.0739.01825.0795-.05762.0129-.06371.1423-.08767.1259-.02463.1015.02621.0912-.03658-.0576-.10523.0096-.05168.0752-.09211.0473.04216.0844-.03874.0746-.03936.0648-.10858.0059-.00981-.1445-.07037.0006-.19573 1.4227-.0114 1.3984-.01288.0225-1.02588 2.361.00009.0024-.13688.001-.04414.2197.06543.2318.06901-.0012.04659.0902.00005.0666.00001-.0661-.13283-.006-.01717-.0797-.22475.0005-.05287.0883.00039.1407.00025-.002.06142.2196.00104.2316-.4105.0055-.00017.0054-.00029.0054-.00035.0075-.00063.42-.07135.0061-.00126.0062-.00132.0061-.00137.006-.00155.0061-.00154.0059-.00172.006-.00177.0059-.00183.0059-.00194.0058-.002.0058-.00211.0058-.00223.0057-.00223.0056-.0024.0056-.00246.0056-.00251.0055-.00257.0054-.00268.0141-.00743.3007.00042-.001.08293-.0027.24386.0259-.00002.3194-.00004.0187-.00001.036-.00003.2132-.00003.0182-.00001.0679-.15539.1351-.06494.1004-.04831.0303-.01456.0529.00008.1909.00027.2429.00035.0045-.36505.1789-.0016.1431-.00129.1421-.00123.1418-.00123.1493-.00135.1487-.00129.1505-.00135.1241-.0011.0318-.00031.0326-.00024.063-.00056.1526-.00134.0735-.00068.0328-.00013.3568-.00164.7016-.00315.0092-.45454.4845-.13892-.0053.3521-.1266.12064-.002.1168.6927-.00746.3754-.00112.1501-.00049.326-.00274.4964-.00419.2344-.00195.008.00575.0513.03716-.0028.07112-.0063.05892-.0148.05555-.0174.05732-.0099.01313-.0372.04929-.0409.0323-.0446.02392-.0445.0193-.0556.02444-.0488.01765-.0511.01228-.0815.01448-.0345.00874-.0407.01713-.0255.01359-.0292.01501-.0679.00363-.07.02057-.0869.00193-.0628-.00316-.0581-.00436-.0411.00333-.0408.00339-.0301.0141-.0226.02693-.0197.02984-.0222.04472-.0079.04922.0002.02321-.0033.20053.0801.00286.0763-.00004.0495-.00351.0476-.01354.0482.0176.0552.00539.028-.00127.0363-.00892.0504-.01183.0557-.02267.0441-.02575.0385-.02317.0407-.0201.0363-.01422.0083-.00006.0238-.0003.0301.00221.0212.00125.0425-.0018.0425-.01091.0355-.01017.0471-.00704.0401.00637.0466.02678.0264.02251.0142.03284-.0011.02436-.0105.02036-.0235.01918-.0316.01307-.0118.01096-.0168.01415-.0173.01638-.0135.02333-.0093.02145.0106.01967.0158.01875.0258.01139.0261-.00759.044.00482.032.01818.0453-.00561.0291-.06121.0414-.01303.0318-.00252.0229.0127.0126.02412.0139.02663.007.01357.0154.06768.0019.00821.5198-.00334.1197-.00074.0022-.03371.0117-.03422.0052-.01922.0137-.0117.0197-.00725.0351-.01719.0417-.0311.0375-.03618.0329-.01518.0375-.00897.0449-.0014.0561.00733.0409.00164.0181-.00161.0191-.0028.0523-.00767.0098-.00309.0499-.01548.043-.01376.0326-.00943.0419-.00258.0416-.0023.0515.00539.0164.0037.0106.00245.0131.00295.0487.00933.0331.01162.0298.01288.0216.0151.0152.02286.0031.0235-.0019.02133.0036.03695.0016.02584.0015.01654.0012.01363.0004.0045.0076.02594.0011.03057-.0037.02458-.0046.02276-.0056.03417-.0094.01916-.0171.02921-.0077.01518-.0274.04187-.0307.04473-.0286.04301-.0203.0348-.0123.02259-.0225.02676-.0047.00553-.0032.28042-.0019.1675-.0009.07414-.0001.015-.0007.05988-.0011.09177-.0004.0398-.0004.0377-.001.08532-.001.08441-.0003.03119-.0007.05538-.0011.09347-.0001.02053-.0015.12923-.0015.12542-.001.08691-.0012.11327-.0006.04836-.0007.05902-.0016.14435-.0003.02247-.0005.04717-.0015.12917-1.2271.01264.003.24899-.0943.00114-.1285.0016.0005.05538-.1128.00086-.0683.00054-.0442.00031-.0431.00037-.0436.00031-.0435.0003-.0436.00037-.0443.00031-.0542.00042-.0581.00049-.0612.00043-.0117.00012-.0093.00793-.0241.02049-.045.03818-.039.03315-.0312.02648-.0307.02608-.0301.02557-.0313.02659-.0917.0779-.0709.06191-.0338.02951.0023.5362-.0824.03586-.0953.0414-.0908.03951-.1799.07829-.0731.03186-.0785.03421-.091.03963-.024.01039-.1634.1413-.0626.05422-.0676.05854-.0612.05291-.0496.04303-.0587.05067-.1096.09497-.0895.07749-.049.04247-.0683.05918-.012.01032-.1054.09132-.1695.14809-.3759.00381-.1184.00121-.1149.00116-.0979.00102-.0735.06358-.0266.023-.0555.048-.1982.17086-.2234.00168-.0511.00061-.0216.00029-.0564.00066-.6074.00535-.0048.48465-.0003.05127-.0004.07499.0878-.00176.0277-.00019.1464-.00095.0475-.00032-.0003.0689-.0002.05053-.0007.16436-.0001.01511-.1678.00341-.0652.00039-.0299.00013-.6666.00397.023 1.24797-.003.3253-.0189 2.0635-.2923.0002h-.1043l-.1086.0001-.0972.0001h-.1084l-.0979.0001-.109.0001h-.0971l-.1089.0001-.0971.0001h-.1088l-.0976.0001-.1082.0001-.0977.0001h-.1093l-.1082.0001-.1085.0001-.1086.0001h-.109l-.109.0001-.1258.0001-.1303.0001-.1306.0001-.1304.0001-.1294.0001h-.0024l-2.1829.0049-.1585.0851-.1414.1072-.1244.1037-.1669-.0022-.0431-.0003-.0222 2.1074v.0055l-.0328 3.615-.3296.0004-.0123.0001-.2065.0004-.8398.003-1.4519.0053-1.4613-.0004-.3648.0005-.1225.0001-.5482.0006-.4108.0006-.0011 1.1894v.0052l-5.719-.0162h-.0079l-5.7214.0102h-.0108l-5.7016-.0018-.0123-.0001.0209 3.5092.008 1.3379-.0047.0002-.2721.0017-5.3013.0334-.0108.0001-5.7608.0345h-.0042l-4.2432.0199-1.50868.0072-.03797-.0001z" style="fill-rule:evenodd;clip-rule:evenodd;fill:#895a44;fill-opacity:.50196;stroke:#fff;stroke-width:.7;stroke-miterlimit:10;stroke-linecap:round;stroke-linejoin:round"/></svg>