<svg width="37" height="30" viewBox="0 0 37 30" fill="none" xmlns="http://www.w3.org/2000/svg">
<path fill-rule="evenodd" clip-rule="evenodd" d="M30.6547 29.4245L30.6555 29.4181L17.4642 29.4633L14.1821 29.4774L12.6696 29.4791L6.91609 29.4911L1.21106 29.4921L1.20979 29.492V29.4915L1.20982 29.441L1.21329 24.7432L1.21181 23.1119L1.21124 22.2631L1.21353 20.1377L1.2153 19.8647L1.21399 19.7037L1.21428 19.4357L1.21385 18.0149L1.20674 15.0668L1.23666 15.0668V15.0631L1.26675 15.0629L1.26497 10.8507L1.25946 5.502L1.25938 0.694153L1.3351 0.690552L1.40294 0.690693V0.688755L6.81439 0.701946L7.07869 0.682129L12.6533 0.672722L12.8553 0.667515L18.4169 0.65522L18.6407 0.6446L24.1432 0.67223L24.3999 0.670818L29.9179 0.633553L30.1876 0.630375L35.6859 0.598415V0.598644L35.6904 5.35381V5.35415L35.6894 6.48072L33.8459 6.74765L33.7305 7.47465L33.3912 9.89296L33.373 10.1557L33.0796 12.1589L32.7402 14.643L32.687 14.9677L32.3869 17.0549L32.0501 19.4221L32.0121 19.776L31.7454 21.637L31.4126 24.1995L31.3548 24.5963L31.1012 26.4974L30.7338 29.0125L30.663 29.4245L30.6547 29.4245Z" fill="#CD6BB7" stroke="white" stroke-width="0.7" stroke-miterlimit="10" stroke-linecap="round" stroke-linejoin="round"/>
</svg>
