<svg width="43" height="26" viewBox="0 0 43 26" fill="none" xmlns="http://www.w3.org/2000/svg">
<path fill-rule="evenodd" clip-rule="evenodd" d="M23.0359 4.19221L23.0382 5.88669L23.7345 5.88603L23.7351 6.30793L23.7475 6.30791L23.7399 6.81799L23.7606 6.81797L23.7568 7.14303L23.4034 7.03786L23.0398 7.0365L23.0405 7.55004L22.3175 7.54897L22.3222 7.96567L22.3077 7.96569L22.3079 8.10923L21.965 8.10956L21.972 8.71143L21.718 8.71094L21.7181 8.80835L22.1731 9.18828L22.1713 9.36119L22.225 9.40608L22.2251 9.43374L22.3655 9.40766L22.7187 9.40731L22.8818 9.31899L22.8859 9.32418L22.9396 9.31722L23.0161 9.31715L23.0161 9.33272L23.6565 9.33554L23.7287 9.30781L23.7969 9.28356L23.9703 9.25226L24.1191 9.25731L24.2534 9.27795L24.4477 9.35727L24.5656 9.47475L24.6215 9.58534L24.6154 9.65971L24.4463 9.82411L24.4271 9.8868L24.4242 9.959L23.7069 9.95967L23.7029 10.0288L23.5603 10.0186L23.478 10.2677L23.6949 10.2675L23.6808 10.5787L23.1046 10.5775L23.0886 10.9718L23.1402 10.97L23.1547 11.008L23.1547 11.027L23.1284 11.4265L23.3638 11.3536L23.4693 11.4296L23.6511 11.4277L23.6454 11.8012L24.3662 11.804L24.365 11.9029L24.5462 11.9992L25.1411 12.0315L25.1391 12.0989L24.6228 12.1046L24.3604 12.1065L23.7841 12.1054L23.7783 12.4045L24.3586 12.4074L24.3547 12.71L25.1379 12.711L25.1413 12.1266L25.5192 12.1245L25.5216 12.4029L25.588 12.5792L25.7161 12.6794L25.7183 12.7105L25.8256 12.7104L26.1331 12.3989L26.3146 12.2448L26.3662 12.1999L26.5602 12.0631L26.6964 11.9782L26.7072 12.3984L26.8497 12.4L26.8581 12.3948L27.4886 12.3908L27.5275 13.6507L27.528 13.6676L27.5276 13.9434L27.8782 13.9155L27.8786 14.2648L28.2276 14.2368L28.9273 13.8334L29.2185 13.8124L29.2268 13.9006L29.6234 13.8691L29.6254 13.7775L30.3251 13.7234L30.3203 13.4265V13.4261L30.3258 13.4261L30.3277 13.4261L30.4331 13.4246L32.9222 13.3909L32.9007 13.3886L32.878 13.3842L32.8532 13.3774L32.8325 13.3696L32.8109 13.3601L32.7334 13.3213L32.7653 13.2858L32.8345 13.3177L32.819 13.3065L32.8098 13.2979L32.7994 13.2857L32.7157 13.1933L32.7053 13.1838L32.6929 13.1735L32.6805 13.1648L32.6681 13.1571L32.6547 13.1501L32.6402 13.1441L32.6257 13.1381L32.6154 13.1337L32.603 13.1303L32.5927 13.1286L32.5782 13.126L32.5627 13.1225L32.5472 13.1217L32.5338 13.1208L32.4326 13.1174L32.4311 13.0552L32.416 13.0509L32.416 12.9938L32.4273 12.9929L32.4262 12.9108L32.4137 12.8227L32.4137 12.7838L32.425 12.7794L32.4374 12.7725L32.4498 12.763L32.4591 12.7543L32.4694 12.7422L32.4746 12.7327L32.4775 12.7258L32.4833 12.7172L32.4859 12.7094L32.489 12.7015L32.5836 12.4959L32.5896 12.483L32.5939 12.4746L32.5983 12.4662L32.6024 12.4586L32.6076 12.4497L32.6147 12.4412L32.6374 12.411L32.8035 12.1947L32.8747 12.193L33.1923 12.1893L33.1876 11.8288L33.5477 11.8233L33.5465 11.6314L33.2119 11.6368L33.2119 11.6291L33.5465 11.6245L33.5465 11.5856L33.8769 11.4807L33.8758 11.4894L33.8727 11.4975L33.8686 11.5041L33.8635 11.5119L33.8583 11.5205L33.8562 11.5301L33.8562 11.5395L33.8604 11.5499L33.8656 11.5594L33.8738 11.5655L33.8831 11.5706L33.8924 11.5741L33.9038 11.5758L33.9072 11.8836L34.0889 11.8791L34.0913 12.1566L33.9085 12.1585L33.9096 12.1827L34.0789 12.1817L34.08 12.1895L34.0841 12.1973L34.0892 12.2059L34.0965 12.212L34.1058 12.2163L34.1161 12.2189L34.1275 12.2197L34.1378 12.218L34.1481 12.2137L34.1564 12.2076L34.1587 12.4237L34.0907 12.5846L33.7411 13.139L33.7204 13.139L33.6998 13.1399L33.6854 13.1408L33.6709 13.1416L33.6523 13.1451L33.6368 13.1503L33.6255 13.1538L33.6131 13.1581L33.6007 13.1642L33.5852 13.1719L33.5728 13.1789L33.5615 13.1867L33.5522 13.1927L33.5409 13.1997L33.5336 13.2048L33.5223 13.2014L33.5119 13.1979L33.5015 13.1962L33.4902 13.1971L33.4778 13.2006L33.4675 13.2066L33.4572 13.217L33.4541 13.2326L33.4583 13.2637L33.4676 13.2706L33.4758 13.2767L33.4851 13.2801L33.4944 13.2818L33.5048 13.2818L33.5151 13.2801L33.5254 13.2766L33.449 13.3363L33.4337 13.3845L34.6087 13.3715L34.6099 13.4012L36.0659 13.3856L36.0657 13.3553L36.064 13.0814L36.8667 12.5802L37.6588 12.5754L37.6554 12.1561L39.0999 12.1561L39.0961 11.5527L39.141 11.5526L39.141 11.4774L39.3795 11.3805L39.5881 11.2723L39.8101 11.2315L40.5455 11.3556L40.5787 11.6401L40.6915 11.7895L40.7752 11.8976L40.8848 12.0445L40.8838 12.156L40.5569 12.1606L39.8293 13.3557L39.1092 13.9018L39.1113 14.5131L41.9978 14.5218L41.9975 14.5754L39.1115 14.5672L39.1156 15.7784L39.1474 15.778L39.4526 15.774L39.6091 15.7229L39.6215 15.7194L39.6411 15.7133L39.6689 15.7073L39.6875 15.7055L39.7021 15.7055L39.7279 15.7046L39.7433 15.7072L39.7595 15.7112L39.7685 15.7137L39.7815 15.7183L39.7898 15.722L39.7998 15.7273L39.8055 15.7308L39.8179 15.7399L39.8259 15.7472L39.8344 15.7567L39.8417 15.7668L39.8434 15.769L39.814 15.7693L39.8232 15.7829L39.8446 15.8144L39.8487 15.8222L39.8509 15.8299L39.8509 15.8386L39.8498 15.8498L39.7562 16.3634L39.7521 16.3738L39.749 16.3816L39.7408 16.3894L39.7325 16.3998L39.7191 16.4067L39.7026 16.4119L39.6685 16.4231L39.6386 16.4327L39.6086 16.4439L39.5818 16.4534L39.5354 16.4733L39.492 16.4906L39.4631 16.5045L39.4414 16.5166L39.4249 16.5287L39.409 16.5392L39.397 16.5529L39.3805 16.5711L39.3723 16.584L39.3382 16.6273L39.2764 16.7069L39.2155 16.7856L39.2021 16.8012L39.1908 16.8124L39.1794 16.821L39.1639 16.8306L39.1494 16.8383L39.1278 16.847L39.1162 16.8516L39.1161 16.6967L39.1148 16.6967L38.7166 16.6943L38.7129 17.0807L39.1152 17.0823L39.1164 17.0823L39.1163 17.013L41.2633 17.0136L41.2638 17.6248L40.5502 17.6234L39.8196 18.2498L39.3211 18.454L39.4234 18.5958L40.1304 19.5654L39.6679 19.5665L39.0804 19.5669L37.6483 19.5686L36.2066 19.5703L36.1694 19.5703L36.1716 19.7583L36.1972 21.8976L36.2071 22.7275L36.2093 22.9134L36.2094 22.9843L36.2094 23.0197L36.2094 23.0324V23.0341V23.0346L34.1948 23.0187L34.1943 23.5044L33.9909 23.5452L33.9708 23.491L33.9656 23.4751L33.96 23.4593L33.954 23.4436L33.9477 23.4279L33.9412 23.4124L33.9343 23.3969L33.9228 23.3711L33.9151 23.3528L33.9078 23.3343L33.9009 23.3157L33.8944 23.297L33.8883 23.2782L33.8825 23.2593L33.8772 23.2404L33.8723 23.2214L33.8677 23.2023L33.8636 23.1831L33.8588 23.1631L33.8559 23.1522L33.8528 23.1414L33.8494 23.1306L33.8458 23.1199L33.842 23.1092L33.8379 23.0986L33.8337 23.088L33.8292 23.0775L33.8245 23.0671L33.8196 23.0567L33.8144 23.0464L33.8091 23.0362L33.8036 23.0261L33.7978 23.0161L33.7259 23.015L33.2853 23.0115L33.2812 23.0115L33.2797 22.5298L33.101 22.5291L33.1013 22.7712L32.9216 22.7704L32.9229 23.0104L32.6586 23.0096L32.3411 23.4426L32.2704 23.9069L32.1769 24.3712L31.8772 25.006L31.8732 25.3963L31.0017 25.3945L30.3593 25.3931L30.3584 24.332L28.3572 24.3396L28.3761 23.7318L28.3741 23.7197L28.3709 23.7059L28.3657 23.6929L28.3585 23.6817L28.3502 23.6713L28.344 23.6635L28.3358 23.6558L28.3223 23.6445L28.3089 23.6376L28.2944 23.6307L28.281 23.6256L28.2645 23.6229L28.2459 23.6204L28.2283 23.6204L28.2129 23.6221L28.1943 23.6265L28.1799 23.6317L28.1654 23.6386L28.152 23.6456L28.1396 23.656L28.1293 23.6646L28.1201 23.6776L28.1118 23.6897L28.1077 23.7009L27.9707 24.0201L27.7955 24.2622L27.7255 24.4292L27.7206 24.6245L27.818 24.902L27.7777 24.9124L27.7208 24.7611L27.7104 24.7447L27.7042 24.7343L27.6949 24.7223L27.6846 24.7102L27.6711 24.6972L27.6598 24.686L27.6433 24.6747L27.6277 24.6644L27.6133 24.6549L27.5957 24.6463L27.5823 24.6411L27.5658 24.6351L27.5544 24.6316L27.54 24.6282L27.5244 24.6247L27.508 24.6222L27.4862 24.6213L27.4656 24.6204L27.446 24.6214L27.4264 24.6239L27.4109 24.6265L27.4016 24.6283L27.3861 24.6335L27.3717 24.6378L27.3573 24.6439L27.3438 24.6491L27.3263 24.656L27.3139 24.6612L27.2995 24.669L27.2778 24.6785L27.2551 24.6898L27.2365 24.7002L27.2138 24.7141L27.1922 24.7244L27.1705 24.7391L27.156 24.7487L27.1375 24.7616L27.1096 24.7807L27.0302 24.8387L26.8146 24.8942L26.2815 24.5929L26.0741 24.683L26.1993 24.9008L26.1121 25.3764L26.0667 25.3574L26.0337 25.3453L25.9965 25.335L25.9676 25.3263L25.9356 25.3203L25.9076 25.3143L25.8808 25.3108L25.8478 25.3066L25.8199 25.304L25.7879 25.3006L25.7373 25.2954L25.4255 25.2637L25.3821 25.2577L25.3409 25.2508L25.3027 25.2431L25.2655 25.2353L25.2273 25.2267L25.188 25.2172L25.154 25.2069L25.1219 25.1974L25.0931 25.1897L25.0651 25.1793L25.0414 25.1707L25.0176 25.1629L24.9918 25.1534L24.968 25.1431L24.9464 25.1336L24.9226 25.1233L24.9009 25.1129L24.8771 25.1025L24.8523 25.0913L24.8307 25.0793L24.808 25.0671L24.7884 25.0551L24.7698 25.0456L24.748 25.0326L24.7263 25.0188L24.7077 25.0084L24.6871 24.9955L24.6685 24.9817L24.653 24.9714L24.6334 24.9584L24.5844 24.9199L24.5842 24.489L25.3037 24.4693L25.3011 23.2704L24.5835 23.278V23.2777L24.5732 20.883L24.5231 19.501L23.0767 19.4326L23.0769 19.6067L21.9907 19.5974L22.1139 19.0889L22.1532 18.603L22.1599 18.2994L21.5827 18.31L21.5559 16.8642L21.5601 16.8364L21.5745 16.8105L21.5806 16.7881L21.5764 16.769L21.4804 16.8312L21.4616 15.9138L20.5963 15.9047L20.5969 16.3135L20.316 16.3138L20.3178 16.1115L20.4025 16.1149L20.4042 15.9027L20.4187 15.9028L20.4013 15.3178L20.0399 15.313L19.862 15.1022L19.9112 14.9102L19.8512 14.8273L19.2463 14.9974L19.2385 15.3052L18.8379 15.3021L18.8356 15.2036L18.6581 15.202L18.6808 15.8846L17.2319 15.894L17.2054 14.7298L17.2322 14.7298L17.2127 14.1281L17.9087 14.1256L17.8925 13.5343L18.6024 13.5372L18.6077 13.4177L18.6533 13.4176L18.6651 13.0891L19.5079 13.1003L19.5159 12.9257L19.8112 12.9306L19.7853 13.5543L19.9318 13.5565L20.0062 13.4906L20.0743 13.4525L20.0556 13.3712L20.1795 13.3348L20.2787 13.3364L20.3777 13.2724L20.485 13.2532L20.6502 13.1683L20.6767 12.9228L20.4949 12.9368L20.3544 12.9387L20.2739 12.9318L20.1872 12.9233L20.2071 12.4097L20.488 12.4146L20.49 12.3852L20.6118 12.3886L20.6261 12.252L20.6115 12.1413L20.6155 12.0531L20.6051 12.0168L20.7002 12.0185L20.8014 12.0097L20.7846 11.8835L20.7163 11.7556L20.7201 11.555L20.6044 11.5327L20.6249 11.4358L20.5424 11.4463L20.511 11.1886L20.7896 11.1894L21.3082 11.0928L21.3389 10.9354L21.2788 10.773L21.1795 10.671L20.9215 10.8045L20.7625 10.8236L20.7809 10.7043L20.6755 10.6733L20.63 10.6387L20.6525 10.5177L20.7164 10.4035L20.929 10.2996L20.9353 10.3376L20.886 10.533L21.0244 10.5554L21.2246 10.4583L21.15 10.263L20.9434 10.2477L20.9392 10.235L20.9283 10.2235L20.9158 10.2143L20.8993 10.2097L20.8855 10.212L20.869 10.2177L20.8552 10.227L20.8387 10.2305L20.8112 10.2357L20.9942 10.1565L21.0793 9.94551L19.4459 9.91969L19.4363 9.91953L19.4364 9.94377L19.2491 9.94339L19.2362 9.95224L19.0654 10.0698L19.055 10.0439L18.9332 10.025L18.9044 10.1184L18.7226 10.1134L18.7451 8.70264L18.7451 8.69619L18.7483 7.98835L19.2124 7.51755L19.4686 7.52076L19.4661 7.26139L19.724 7.00005L19.4677 6.91905L19.4668 6.31461L19.6982 6.31414L19.7004 6.12856L19.8486 6.07657L19.8955 6.05611L19.9705 6.01674L20.0249 5.97425L20.0737 5.92077L20.1637 5.83268L20.2443 5.73679L20.3286 5.62042L20.4035 5.51188L20.4897 5.3861L20.5273 5.33068L20.5516 5.30751L20.6255 5.39543L20.6327 5.39194L20.879 5.68305L20.9038 5.71239L21.1944 5.58396L21.183 5.5676L21.3034 5.51707L21.4677 5.34519L21.422 5.29477L21.3321 5.09589L21.3125 5.07686L21.337 5.0632L21.2293 4.93517L21.2798 4.9147L21.4595 4.75986L21.5856 4.69632L21.8989 4.56046L21.6855 4.31493L21.7503 4.26143L21.8309 4.19183L21.8402 4.18304L23.0359 4.19221ZM12.3798 1.01017L12.38 1.10917L12.9248 1.10641L12.927 1.2739L12.8891 1.48347L12.8867 1.53405L12.8792 1.58248L12.8767 1.62674L12.8743 1.68993L12.8903 3.64883L12.8904 3.6952L12.8829 3.75206L12.8729 3.80682L12.8679 3.84264L12.8604 3.87214L12.853 3.89741L12.8455 3.93534L12.8197 3.95693L12.8279 4.0091L12.7978 4.0198L12.7896 4.04051L12.7979 4.08287L12.7076 4.28726L12.675 4.37159L12.6601 4.42424L12.64 4.47274L12.6225 4.51907L12.5999 4.59494L12.5775 4.7003L12.5575 4.80355L12.5501 4.88146L12.5427 4.96997L12.5378 5.05632L12.538 5.14055L12.5178 5.14058L12.5179 5.20587L12.5205 5.25434L12.5181 5.29649L12.5207 5.33858L12.5258 5.38282L12.5309 5.42496L12.536 5.4797L12.5462 5.54077L12.5563 5.58501L12.5639 5.62292L12.5741 5.66289L12.5918 5.71345L12.6044 5.75769L12.6222 5.81242L12.6323 5.84189L12.6525 5.88612L12.6727 5.92396L12.6929 5.9703L12.7182 6.0208L12.751 6.07978L12.7838 6.13027L12.8241 6.1913L12.8545 6.2313L12.9477 6.34496L12.9479 6.41864L12.9831 6.4207L13.0815 6.54696L13.1345 6.63752L13.1622 6.62482L13.2859 6.83112L13.3464 6.93005L13.3969 7.01211L13.4221 7.05633L13.4423 7.09423L13.4625 7.13841L13.4853 7.18896L13.503 7.2458L13.5157 7.29631L13.5258 7.34688L13.5309 7.38058L13.536 7.429L13.5386 7.47747L13.5387 7.52588L13.5337 7.57225L13.5313 7.61018L13.5238 7.64389L13.5163 7.68182L13.5063 7.71132L13.4913 7.76187L13.4712 7.82086L13.4512 7.86302L13.406 7.94737L13.3834 7.98315L13.3182 8.09067L13.14 8.38156L12.9956 8.38008L12.9977 8.69812L12.9977 8.69943L12.9971 8.7661L12.9925 9.29944L12.6382 9.30477L12.6292 9.90301L12.7425 9.90287L12.2676 10.3437L12.2654 10.5058L12.1572 10.506L11.999 10.6873L11.9992 10.799L11.8784 10.837L11.6394 10.8648L11.569 10.8648L11.5734 10.5362L11.5532 10.5299L11.5555 10.3635L11.5152 10.3615L11.3592 10.3659L11.3587 10.1068L11.5223 10.1066L11.5245 9.91696L11.3861 9.91924L11.3859 9.84134L11.4286 9.78232L11.3933 9.74866L11.3505 9.73816L11.3152 9.71295L11.2773 9.58873L11.33 9.49382L11.287 9.40965L11.297 9.34434L11.3296 9.25162L11.3898 9.17359L11.4299 9.06194L11.4675 9.00497L11.4071 8.96718L11.3592 8.94403L11.3039 8.98835L11.2235 9.03476L11.1446 9.10004L11.0752 9.17187L10.9999 9.25625L10.9571 9.27946L10.7684 9.26076L10.7406 9.23548L10.7254 9.18497L10.7052 9.13025L10.6926 9.10494L10.6598 9.06917L10.6521 9.0081L10.6596 8.95123L10.6897 8.90483L10.7149 8.89853L10.75 8.83946L10.6921 8.81427L10.6519 8.87329L10.6418 8.88596L10.6017 8.93654L10.5489 8.96825L10.5921 9.20618L10.5847 9.3073L10.6201 9.36411L10.7258 9.38297L10.7611 9.43768L10.7312 9.61467L10.7037 9.67156L10.6207 9.71803L10.5502 9.69491L10.5125 9.68863L10.4244 9.68669L10.3387 9.61939L10.2579 9.47412L10.1924 9.46155L10.1382 9.45374L10.131 9.93559L9.60695 9.93626L9.54922 10.0353L9.43621 10.1619L9.46894 10.1703L9.48164 10.2229L9.37363 10.3262L9.1976 10.4128L9.12981 10.4866L9.17013 10.5139L9.28869 10.6676L9.33905 10.6738L9.41452 10.6653L9.39959 10.7706L9.39017 11.0951L9.39022 11.1196L9.82549 11.1177L9.67727 11.2442L9.65966 11.2274L9.58434 11.3202L9.58211 11.4782L9.53477 11.7458L9.46433 11.7458L9.4643 11.7311L9.22019 11.7293L9.17488 11.723L9.06658 11.6642L8.78187 11.4792L8.73399 11.4498L8.74153 11.4392L8.71891 11.4371L8.71833 11.1226L8.77112 11.1223L8.77811 10.8115L8.64956 10.7063L8.46588 10.7065L8.46823 10.616L8.46067 10.616L8.46303 10.5339L8.77004 10.5377L8.54848 10.4685L8.54811 10.2704L8.38216 10.3528L8.22612 10.3383L8.18584 10.332L8.12049 10.3616L8.03745 10.368L7.98213 10.3702L7.85651 10.343L7.85624 10.343L7.85716 9.9638L7.85715 9.96232L7.85718 9.93951L7.20699 9.93712L7.21208 8.75075L7.29922 8.75063L7.29922 8.71761L7.29814 7.54619L6.9751 7.54474L6.97758 7.52581L6.09677 7.52911L6.09933 7.54804L6.15486 7.65541L6.16247 7.67855L6.17008 7.70169L6.17265 7.72279L6.16277 7.83019L6.02424 7.7904L5.94895 7.89789L5.92654 8.00325L6.03728 8.01576L6.01727 8.05999L6.00221 8.09582L5.99721 8.11904L5.9897 8.14431L5.98227 8.17802L5.97982 8.21173L5.97988 8.24333L5.81124 8.24356L5.81133 8.28986L5.6226 8.29223L5.62484 8.14903L5.4361 8.14929L5.43417 8.44841L5.09438 8.45099L5.10075 7.85065L5.23921 7.85045L5.24107 7.55133L5.31908 7.55123L5.31904 7.52807L5.37684 7.46903L5.56054 7.46877L5.56263 7.24755L5.23297 7.24801L5.08198 7.25033L5.08635 6.9491L4.7013 6.94964L4.3517 6.65575L4.35459 6.50148L4.3229 6.50153L3.99317 6.50199L3.99539 6.35183L3.62798 6.35287L3.62583 6.53411L3.26339 6.53463L3.07684 6.37904L3.07679 6.35446L2.92579 6.35485L2.928 6.2044L2.94306 6.20438L2.94527 6.05485L2.93014 6.05487L2.93463 5.78312L2.96486 5.77464L2.98494 5.7599L3.2945 5.75945L3.29445 5.73419L3.65646 5.51879L3.65824 5.15437L3.63555 5.15441L3.6355 5.12914L2.94337 5.13225L2.29403 5.13319L2.2958 4.77089L2.55205 4.55569L2.1166 4.55632L2.11383 4.43622L2.01244 4.08462L2.03711 3.95496L2.83272 3.95209L2.84528 2.74375L1.54146 2.74988L1.33252 2.7523L1.33496 2.71437L1.3399 2.668L1.34989 2.61957L1.36486 2.57529L1.38239 2.52052L1.45001 2.36667L1.53769 2.15799L1.55023 2.12638L1.56018 2.09266L1.5727 2.05472L1.69858 2.05453L2.04425 1.53945L2.27897 1.53803L2.27926 1.67877L2.71313 2.11201L2.85154 2.11181L2.84963 2.40933L3.02587 2.40857L3.02591 2.42756L3.3028 2.42505L3.36578 2.46499L4.00135 2.46562L4.15876 2.49175L4.27963 2.51228L4.28091 2.13349L7.15486 2.10855L7.15017 1.5109L10.0711 1.49351L10.0749 1.73553L10.1029 1.7355L10.1785 1.78171L10.2668 1.83845L10.4709 2.00883L10.5797 2.27199L10.8994 2.2737L11.0397 1.93859L11.4997 1.55468L11.4996 1.52941L11.5173 1.52517L11.5298 1.52094L11.541 1.51157L11.5408 1.51128L11.5405 1.51106L11.5401 1.51054L11.5396 1.51003L11.5394 1.50975L11.539 1.50923L11.5388 1.50895L11.5386 1.50866L11.5384 1.50838L11.5383 1.50809L11.5381 1.50781L11.538 1.50752L11.5377 1.50724L11.5376 1.50695L11.5375 1.50667L11.5373 1.50638L11.5372 1.5061L11.5449 1.49143L11.5373 1.4704L11.5222 1.45143L11.5171 1.41773L11.5138 1.01751L12.3798 1.01017ZM14.7268 0.87018L14.7333 1.17248L15.4559 1.16663L15.4564 1.46386L15.8219 1.46105L16.8159 1.45338L17.4877 1.90414L17.6456 2.01238L17.8035 2.11748L17.8956 2.17863L18.0234 2.26335L18.1306 2.33709L18.2747 2.39692L18.3862 2.50653L18.7057 2.72301L18.7283 2.72926L19.0103 2.91442L19.2959 3.0791L19.6248 3.24215L19.8483 3.34405L20.1245 3.46005L20.2109 3.49138L20.551 3.61519L20.8027 3.69192L20.8478 3.69501L21.0075 3.73888L21.152 3.77015L21.5787 3.84991L21.5789 3.87894L21.5791 3.90095L21.5814 4.25778L21.3521 4.45504L21.2358 4.55102L21.0408 4.7162L20.9001 4.83576L20.7857 4.93328L20.6957 5.00882L20.6038 5.08744L20.5419 5.14567L20.4763 5.21959L20.4445 5.26832L20.4595 5.27772L20.3527 5.4208L20.3133 5.47587L20.313 5.27313L20.1703 5.27488L20.1701 5.11463L17.3294 5.1019L17.3216 5.7587L17.2916 5.76085L17.2767 5.84886L16.5582 5.84965L16.5579 5.62547L16.2774 5.62162L16.1342 5.28657L15.8723 5.28475L15.871 6.09325L15.8301 6.09558L15.828 6.29427L15.2091 6.29406L15.1098 6.45887L14.9496 6.45694L14.5295 6.74867L14.3141 6.68602L14.2115 6.70713L14.0511 6.61721L14.0406 6.2937L13.9055 6.29369L14.242 3.90306L13.7386 3.89801L13.7385 3.82067L13.0175 3.82153L13.0299 3.75445L13.4655 3.75182L13.9109 3.62561L14.1438 3.62744L14.1437 3.60018L14.3163 3.49944L14.3683 3.19348L14.4059 3.19343L14.384 2.08517L14.0123 2.08526L14.005 1.29423L13.6497 1.29465L13.6369 0.88155L14.7268 0.87018Z" fill="#0faad8" fill-opacity="1" stroke="white" stroke-width="0.7" stroke-miterlimit="10" stroke-linecap="round" stroke-linejoin="round"/>
</svg>
