<svg width="46" height="36" viewBox="0 0 46 36" fill="none" xmlns="http://www.w3.org/2000/svg">
<path fill-rule="evenodd" clip-rule="evenodd" d="M27.5814 34.8844L27.5814 34.8753L27.4895 34.8752L26.5917 34.8746L21.8501 34.8276L21.8495 34.8276V34.8274L17.6752 34.8014L17.6661 34.8015L16.0791 34.7916L13.228 34.7697L10.3475 34.7945L10.3437 34.7946L7.82837 34.7731L7.61795 34.7714L7.61794 34.7679L7.59285 32.3738L3.30241 32.3882L3.29973 28.786L4.73308 28.7818L4.7234 25.1597L4.7206 21.5784L1.8186 21.5812L1.81586 20.3715V20.3712L1.81438 19.1624L1.13284 19.1745L1.13333 17.965L1.81296 17.9726L1.81152 16.7569L1.13583 16.7698L1.14305 10.8206L1.79968 10.8218L1.79883 10.7178L1.79884 10.7026L1.79874 7.3515L1.79875 7.11615L7.6069 7.12094L7.60995 6.92618L7.62596 5.91056L7.62599 5.90999L10.2563 5.89952L10.5134 5.8985L10.4756 1.12423V1.124L16.2796 1.1115L22.0281 1.08094L22.0283 1.08112L22.0359 5.87479L27.5497 5.95027L27.612 5.94767L27.794 5.9399L28.9842 5.938L33.3082 5.93129L33.4326 5.91071L33.5185 5.89649V5.89626L33.5692 1.06036L35.7047 1.06921L39.2939 1.08436L39.2941 1.0847L39.2937 5.92543V5.92577L41.5173 5.92919L44.8939 5.93473H44.8943V5.93512L44.9068 10.8746L44.9162 13.2643L44.9164 13.288L44.9369 15.6876V15.688L44.9036 20.4818V20.482L44.9768 25.2523L44.9771 25.2736L44.9773 25.3074L44.8976 27.7239L44.8939 30.109L44.8935 32.5205L42.0138 32.4935L42.0169 34.8906L39.1362 34.9167L38.0608 34.9175L33.3603 34.9212L27.6421 34.8834L27.6384 34.8834L27.6384 34.885L27.5814 34.8844Z" fill="#0faad8" fill-opacity="1" stroke="white" stroke-width="0.7" stroke-miterlimit="10" stroke-linecap="round" stroke-linejoin="round"/>
</svg>
